<svg width="60" height="60" viewBox="0 0 60 60" fill="none" xmlns="http://www.w3.org/2000/svg">
<path fill-rule="evenodd" clip-rule="evenodd" d="M32.25 9C32.25 7.75736 31.2426 6.75 30 6.75C28.7574 6.75 27.75 7.75736 27.75 9V9.92422C26.7697 10.1701 25.8077 10.5544 24.8918 11.0832C16.7262 15.7976 17.7641 27.8967 26.6133 31.1516L27.7501 31.5698L27.75 45.6584C26.1453 45.2058 24.7116 44.151 23.814 42.5963L22.6873 40.6448C22.066 39.5686 20.6899 39.1999 19.6137 39.8212C18.5376 40.4425 18.1688 41.8186 18.7902 42.8948L19.9169 44.8463C21.6523 47.8521 24.578 49.7389 27.75 50.2605L27.75 51C27.75 52.2426 28.7573 53.25 30 53.25C31.2426 53.25 32.25 52.2427 32.25 51L32.25 50.0759C33.2304 49.8299 34.1925 49.4457 35.1085 48.9168C43.274 44.2024 42.2362 32.1033 33.387 28.8484L32.2501 28.4302L32.25 14.3416C33.8548 14.7941 35.2886 15.8489 36.1863 17.4037L37.313 19.3552C37.9343 20.4314 39.3104 20.8001 40.3866 20.1788C41.4627 19.5575 41.8314 18.1814 41.2101 17.1052L40.0834 15.1537C38.348 12.1478 35.4222 10.261 32.25 9.7395V9ZM27.1418 14.9803C27.3416 14.865 27.5445 14.7613 27.75 14.6691L27.7501 26.76C22.8689 24.6046 22.4116 17.7113 27.1418 14.9803ZM32.25 45.331L32.2501 33.24C37.1314 35.3953 37.5887 42.2887 32.8585 45.0197C32.6586 45.1351 32.4556 45.2388 32.25 45.331Z" fill="#8694B5"/>
<path fill-rule="evenodd" clip-rule="evenodd" d="M43.3906 1.12118C39.9642 0.749956 35.6454 0.749976 30.1357 0.75H29.8643C24.3546 0.749976 20.0358 0.749956 16.6094 1.12118C13.1128 1.50002 10.2797 2.28697 7.86071 4.04446C6.39627 5.10843 5.10843 6.39627 4.04446 7.86071C2.28697 10.2797 1.50002 13.1128 1.12118 16.6094C0.749956 20.0358 0.749976 24.3546 0.75 29.8643V30.1357C0.749976 35.6454 0.749956 39.9642 1.12118 43.3906C1.50002 46.8872 2.28697 49.7203 4.04446 52.1393C5.10843 53.6037 6.39627 54.8916 7.86071 55.9555C10.2797 57.713 13.1128 58.5 16.6094 58.8788C20.0358 59.25 24.3545 59.25 29.864 59.25H30.1358C35.6453 59.25 39.9642 59.25 43.3906 58.8788C46.8872 58.5 49.7203 57.713 52.1393 55.9555C53.6037 54.8916 54.8916 53.6037 55.9555 52.1393C57.713 49.7203 58.5 46.8872 58.8788 43.3906C59.25 39.9642 59.25 35.6455 59.25 30.136V29.8642C59.25 24.3547 59.25 20.0358 58.8788 16.6094C58.5 13.1128 57.713 10.2797 55.9555 7.86071C54.8916 6.39627 53.6037 5.10843 52.1393 4.04446C49.7203 2.28697 46.8872 1.50002 43.3906 1.12118ZM10.5057 7.68503C12.0298 6.57778 13.9804 5.93236 17.0941 5.595C20.25 5.25309 24.3253 5.25 30 5.25C35.6747 5.25 39.75 5.25309 42.9059 5.595C46.0196 5.93236 47.9702 6.57777 49.4943 7.68503C50.5767 8.47145 51.5286 9.42333 52.315 10.5057C53.4222 12.0298 54.0676 13.9804 54.405 17.0941C54.7469 20.25 54.75 24.3253 54.75 30C54.75 35.6747 54.7469 39.75 54.405 42.9059C54.0676 46.0196 53.4222 47.9702 52.315 49.4943C51.5286 50.5767 50.5767 51.5286 49.4943 52.315C47.9702 53.4222 46.0196 54.0676 42.9059 54.405C39.75 54.7469 35.6747 54.75 30 54.75C24.3253 54.75 20.25 54.7469 17.0941 54.405C13.9804 54.0676 12.0298 53.4222 10.5057 52.315C9.42333 51.5286 8.47145 50.5767 7.68503 49.4943C6.57777 47.9702 5.93236 46.0196 5.595 42.9059C5.25309 39.75 5.25 35.6747 5.25 30C5.25 24.3253 5.25309 20.25 5.595 17.0941C5.93236 13.9804 6.57778 12.0298 7.68503 10.5057C8.47145 9.42333 9.42333 8.47145 10.5057 7.68503Z" fill="#8694B5"/>
</svg>
