<svg width="66" height="66" viewBox="0 0 66 66" fill="none" xmlns="http://www.w3.org/2000/svg">
<path d="M10.1626 60.7896L11.3382 58.8712L11.3382 58.8712L10.1626 60.7896ZM5.21048 55.8375L7.12892 54.6619L7.12892 54.6619L5.21048 55.8375ZM60.7897 55.8375L58.8712 54.6619L58.8712 54.6619L60.7897 55.8375ZM55.8376 60.7896L54.6619 58.8712L54.6619 58.8712L55.8376 60.7896ZM55.8376 14.2104L54.6619 16.1288L54.6619 16.1288L55.8376 14.2104ZM60.7897 19.1625L58.8712 20.3381L58.8712 20.3381L60.7897 19.1625ZM10.1626 14.2104L11.3382 16.1288L11.3382 16.1288L10.1626 14.2104ZM5.21048 19.1625L7.12892 20.3381L7.12892 20.3381L5.21048 19.1625ZM52.4304 4.63935L54.0542 3.08183L54.0542 3.08183L52.4304 4.63935ZM8.53274 5.67237L9.89128 7.46594L9.89128 7.46594L8.53274 5.67237ZM5.56342 8.768L7.40938 10.0544L5.56342 8.768ZM54.0001 12.391L56.2501 12.391L56.2501 12.3799L54.0001 12.391ZM52.091 37.841C53.3336 37.841 54.341 36.8336 54.341 35.591C54.341 34.3483 53.3336 33.341 52.091 33.341V37.841ZM43.9092 33.341C42.6665 33.341 41.6592 34.3483 41.6592 35.591C41.6592 36.8336 42.6665 37.841 43.9092 37.841V33.341ZM28.5001 14.25H37.5001V9.75H28.5001V14.25ZM37.5001 60.75H28.5001V65.25H37.5001V60.75ZM28.5001 60.75C23.5464 60.75 19.9891 60.7476 17.2143 60.4838C14.4731 60.2232 12.7288 59.7233 11.3382 58.8712L8.98698 62.708C11.2034 64.0663 13.7178 64.6716 16.7884 64.9636C19.8256 65.2524 23.6335 65.25 28.5001 65.25V60.75ZM0.750085 37.5C0.750085 42.3666 0.747711 46.1745 1.03649 49.2117C1.32845 52.2823 1.93379 54.7966 3.29204 57.0131L7.12892 54.6619C6.27678 53.2713 5.77692 51.527 5.51628 48.7857C5.25246 46.011 5.25009 42.4537 5.25009 37.5H0.750085ZM11.3382 58.8712C9.62265 57.8199 8.18023 56.3774 7.12892 54.6619L3.29204 57.0131C4.7144 59.3342 6.6659 61.2857 8.98698 62.708L11.3382 58.8712ZM37.5001 65.25C42.3667 65.25 46.1746 65.2524 49.2118 64.9636C52.2824 64.6716 54.7967 64.0663 57.0132 62.708L54.6619 58.8712C53.2714 59.7233 51.5271 60.2232 48.7858 60.4838C46.0111 60.7476 42.4538 60.75 37.5001 60.75V65.25ZM58.8712 54.6619C57.8199 56.3774 56.3775 57.8199 54.6619 58.8712L57.0132 62.708C59.3343 61.2857 61.2858 59.3342 62.7081 57.0131L58.8712 54.6619ZM54.6619 16.1288C56.3775 17.1801 57.8199 18.6226 58.8712 20.3381L62.7081 17.9869C61.2858 15.6658 59.3343 13.7143 57.0132 12.292L54.6619 16.1288ZM28.5001 9.75C23.6335 9.75 19.8256 9.74763 16.7884 10.0364C13.7178 10.3284 11.2034 10.9337 8.98698 12.292L11.3382 16.1288C12.7288 15.2767 14.4731 14.7768 17.2143 14.5162C19.9891 14.2524 23.5464 14.25 28.5001 14.25V9.75ZM5.25009 37.5C5.25009 32.5463 5.25246 28.989 5.51628 26.2143C5.77692 23.473 6.27678 21.7287 7.12892 20.3381L3.29204 17.9869C1.93379 20.2034 1.32845 22.7177 1.03649 25.7883C0.747711 28.8255 0.750085 32.6334 0.750085 37.5H5.25009ZM8.98698 12.292C6.6659 13.7143 4.7144 15.6658 3.29204 17.9869L7.12892 20.3381C8.18023 18.6226 9.62265 17.1801 11.3382 16.1288L8.98698 12.292ZM27.1593 5.25H43.2655V0.75H27.1593V5.25ZM43.2655 5.25C45.8625 5.25 47.5745 5.25519 48.8441 5.43314C50.039 5.60062 50.5038 5.88116 50.8066 6.19687L54.0542 3.08183C52.7845 1.75819 51.1977 1.21905 49.4687 0.9767C47.8143 0.744815 45.7301 0.75 43.2655 0.75V5.25ZM27.1593 0.75C22.1787 0.75 18.2549 0.746647 15.1419 1.09826C11.9811 1.45529 9.38915 2.2011 7.17421 3.8788L9.89128 7.46594C11.2045 6.47127 12.893 5.8809 15.647 5.56983C18.4489 5.25335 22.0743 5.25 27.1593 5.25V0.75ZM5.25009 28.1869C5.25009 22.8919 5.25293 19.0941 5.55845 16.1542C5.86014 13.2511 6.43657 11.4504 7.40938 10.0544L3.71746 7.48156C2.12693 9.76385 1.42169 12.4256 1.08255 15.689C0.747241 18.9156 0.750085 22.9881 0.750085 28.1869H5.25009ZM7.17421 3.8788C5.84426 4.88617 4.67842 6.10265 3.71746 7.48156L7.40938 10.0544C8.10412 9.05754 8.94235 8.1847 9.89128 7.46594L7.17421 3.8788ZM56.2501 12.3799C56.24 10.3499 56.1967 8.59074 55.9425 7.1324C55.6783 5.61683 55.1562 4.23076 54.0542 3.08183L50.8066 6.19687C51.0867 6.48885 51.3393 6.92964 51.5094 7.90518C51.6894 8.93795 51.7399 10.3342 51.7501 12.4021L56.2501 12.3799ZM0.750085 28.1869C0.750085 31.1139 0.689604 33.7926 0.750856 36.0607L5.24922 35.9393C5.18995 33.7446 5.25009 31.2721 5.25009 28.1869H0.750085ZM61.5 41.5228H43.9092V46.0228H61.5V41.5228ZM33.4774 35.591C33.4774 41.3523 38.1478 46.0228 43.9092 46.0228V41.5228C40.6331 41.5228 37.9774 38.867 37.9774 35.591H33.4774ZM37.9774 35.591C37.9774 32.3149 40.6331 29.6591 43.9092 29.6591V25.1591C38.1478 25.1591 33.4774 29.8296 33.4774 35.591H37.9774ZM52.091 33.341H43.9092V37.841H52.091V33.341ZM37.5001 14.25C41.6539 14.25 44.8348 14.251 47.4106 14.4099C49.9839 14.5687 51.7831 14.8783 53.2013 15.4169L54.7989 11.21C52.7587 10.4352 50.4358 10.088 47.6877 9.91845C44.9422 9.74903 41.6022 9.75 37.5001 9.75V14.25ZM53.2013 15.4169C53.7324 15.6186 54.2131 15.8538 54.6619 16.1288L57.0132 12.292C56.3129 11.8628 55.5783 11.506 54.7989 11.21L53.2013 15.4169ZM51.7501 12.391V13.3134H56.2501V12.391H51.7501ZM43.9092 29.6591H62.8333V25.1591H43.9092V29.6591ZM65.2501 37.5C65.2501 33.3766 65.2511 30.0231 65.0789 27.2688L60.5877 27.5495C60.7491 30.1318 60.7501 33.3241 60.7501 37.5H65.2501ZM65.0789 27.2688C64.8436 23.5043 64.2742 20.5425 62.7081 17.9869L58.8712 20.3381C59.858 21.9483 60.3672 24.0212 60.5877 27.5495L65.0789 27.2688ZM60.7501 37.5C60.7501 39.8626 60.75 41.9166 60.7198 43.7354L65.2192 43.8101C65.2502 41.9464 65.2501 39.8518 65.2501 37.5H60.7501ZM60.7198 43.7354C60.6223 49.6111 60.1904 52.5093 58.8712 54.6619L62.7081 57.0131C64.7487 53.6832 65.1232 49.5938 65.2192 43.8101L60.7198 43.7354ZM61.5 46.0228H62.9695V41.5228H61.5V46.0228Z" fill="#8694B5"/>
</svg>
