<svg width="66" height="54" viewBox="0 0 66 54" fill="none" xmlns="http://www.w3.org/2000/svg">
<path d="M42 42H30M21 42H15M3.03314 21C3 22.7311 3 24.7094 3 27C3 35.4008 3 39.6012 4.6349 42.8099C6.073 45.6323 8.36771 47.927 11.1901 49.3651C14.3988 51 18.5992 51 27 51H39C47.4008 51 51.6012 51 54.8099 49.3651C57.6323 47.927 59.927 45.6323 61.3651 42.8099C63 39.6012 63 35.4008 63 27C63 24.7094 63 22.7311 62.9669 21M3.03314 21C3.12155 16.3823 3.44578 13.5239 4.6349 11.1901C6.073 8.36771 8.36771 6.073 11.1901 4.6349C14.3988 3 18.5992 3 27 3H39C47.4008 3 51.6012 3 54.8099 4.6349C57.6323 6.073 59.927 8.36771 61.3651 11.1901C62.5542 13.5239 62.8785 16.3823 62.9669 21M3.03314 21H62.9669" stroke="#8694B5" stroke-width="4.5" stroke-linecap="round"/>
</svg>
