<svg width="145" height="144" viewBox="0 0 145 144" fill="none" xmlns="http://www.w3.org/2000/svg">
<path d="M56.5693 49.8875L69.9525 28.1398C71.5356 25.5672 74.3401 24.0001 77.3608 24.0001C82.692 24.0001 86.7689 28.7521 85.9583 34.0214L84.5 43.5001C82.9226 53.7533 90.8556 63.0001 101.229 63.0001H105.368C120.59 63.0001 130.49 79.0193 123.683 92.6343L116.792 106.416C111.71 116.58 101.322 123 89.959 123H72.5C64.4127 123 57.2596 119 52.9115 112.87C52.97 112.255 53 111.631 53 111V63.0001C53 61.0141 52.7031 59.0974 52.1513 57.292C53.2146 55.3388 54.6304 53.0382 56.5693 49.8875Z" fill="#A7C4FF"/>
<path d="M44 111C44 116.799 39.299 121.5 33.5 121.5C27.701 121.5 23 116.799 23 111V63.0001C23 57.2011 27.701 52.5001 33.5 52.5001C39.299 52.5001 44 57.2011 44 63.0001V111Z" fill="#0A0F1C"/>
</svg>
