<svg width="145" height="144" viewBox="0 0 145 144" fill="none" xmlns="http://www.w3.org/2000/svg">
<rect x="30.5" y="24.0001" width="80" height="92" fill="#0A0F1C"/>
<path d="M83 47.9999C83 43.8578 86.3579 40.4999 90.5 40.4999C94.6421 40.4999 98 43.8578 98 47.9999C98 52.142 94.6421 55.4999 90.5 55.4999C86.3579 55.4999 83 52.142 83 47.9999Z" fill="#A7C4FF"/>
<path d="M47 95.9999C47 91.8578 50.3579 88.4999 54.5 88.4999C58.6421 88.4999 62 91.8578 62 95.9999C62 100.142 58.6421 103.5 54.5 103.5C50.3579 103.5 47 100.142 47 95.9999Z" fill="#A7C4FF"/>
<path fill-rule="evenodd" clip-rule="evenodd" d="M99.2811 14.2425C92.4283 13.5 83.7907 13.5001 72.7715 13.5001H72.2285C61.2093 13.5001 52.5717 13.5 45.7189 14.2425C38.7256 15.0002 33.0594 16.5741 28.2214 20.089C25.2925 22.217 22.7169 24.7927 20.5889 27.7215C17.0739 32.5595 15.5 38.2258 14.7424 45.219C13.9999 52.0718 14 60.7094 14 71.7286V72.2716C14 83.2909 13.9999 91.9285 14.7424 98.7813C15.5 105.775 17.0739 111.441 20.5889 116.279C22.7169 119.208 25.2925 121.783 28.2214 123.911C33.0594 127.426 38.7256 129 45.7189 129.758C52.5715 130.5 61.209 130.5 72.2279 130.5H72.7716C83.7906 130.5 92.4285 130.5 99.2811 129.758C106.274 129 111.941 127.426 116.779 123.911C119.707 121.783 122.283 119.208 124.411 116.279C127.926 111.441 129.5 105.775 130.258 98.7813C131 91.9286 131 83.2912 131 72.2722V71.7285C131 60.7096 131 52.0717 130.258 45.219C129.5 38.2258 127.926 32.5595 124.411 27.7215C122.283 24.7927 119.707 22.217 116.779 20.089C111.941 16.5741 106.274 15.0002 99.2811 14.2425ZM90.5 31.4999C81.3873 31.4999 74 38.8872 74 47.9999C74 57.1126 81.3873 64.4999 90.5 64.4999C99.6127 64.4999 107 57.1126 107 47.9999C107 38.8872 99.6127 31.4999 90.5 31.4999ZM59.0003 36.0001C59.0003 33.5149 56.9856 31.5001 54.5003 31.5001C52.015 31.5001 50.0003 33.5149 50.0003 36.0001V72.0002C50.0003 74.4854 52.015 76.5002 54.5003 76.5002C56.9856 76.5002 59.0003 74.4854 59.0003 72.0002V36.0001ZM95.0003 72.0002C95.0003 69.5149 92.9856 67.5002 90.5003 67.5002C88.015 67.5002 86.0003 69.5149 86.0003 72.0002V108C86.0003 110.485 88.015 112.5 90.5003 112.5C92.9856 112.5 95.0003 110.485 95.0003 108V72.0002ZM54.5 79.4999C45.3873 79.4999 38 86.8872 38 95.9999C38 105.113 45.3873 112.5 54.5 112.5C63.6127 112.5 71 105.113 71 95.9999C71 86.8872 63.6127 79.4999 54.5 79.4999Z" fill="#A7C4FF"/>
</svg>
