<svg width="145" height="144" viewBox="0 0 145 144" fill="none" xmlns="http://www.w3.org/2000/svg">
<rect x="30.5" y="28.0002" width="80" height="84" fill="#0A0F1C"/>
<path fill-rule="evenodd" clip-rule="evenodd" d="M72.7716 13.5002C83.7907 13.5001 92.4283 13.5001 99.2811 14.2426C106.274 15.0002 111.941 16.5741 116.779 20.0891C119.707 22.2171 122.283 24.7927 124.411 27.7216C127.926 32.5596 129.5 38.2258 130.258 45.2191C131 52.0718 131 60.7096 131 71.7286V72.2723C131 83.2912 131 91.9287 130.258 98.7814C129.5 105.775 127.926 111.441 124.411 116.279C122.283 119.208 119.707 121.783 116.779 123.911C111.941 127.426 106.274 129 99.2811 129.758C92.4285 130.5 83.7906 130.5 72.7716 130.5H72.2279C61.209 130.5 52.5715 130.5 45.7189 129.758C38.7256 129 33.0594 127.426 28.2214 123.911C25.2925 121.783 22.7169 119.208 20.5889 116.279C17.0739 111.441 15.5 105.775 14.7424 98.7814C13.9999 91.9286 14 83.291 14 72.2718V71.7287C14 60.7095 13.9999 52.0719 14.7424 45.2191C15.5 38.2258 17.0739 32.5596 20.5889 27.7216C22.7169 24.7927 25.2925 22.2171 28.2214 20.0891C33.0594 16.5741 38.7256 15.0002 45.7189 14.2426C52.5717 13.5001 61.2093 13.5001 72.2284 13.5002H72.7716ZM77 42.0002C77 39.5149 74.9853 37.5002 72.5 37.5002C70.0147 37.5002 68 39.5149 68 42.0002V102C68 104.486 70.0147 106.5 72.5 106.5C74.9853 106.5 77 104.486 77 102V42.0002ZM101 66.0002C101 63.5149 98.9853 61.5002 96.5 61.5002C94.0147 61.5002 92 63.5149 92 66.0002V102C92 104.486 94.0147 106.5 96.5 106.5C98.9853 106.5 101 104.486 101 102V66.0002ZM53 78.0002C53 75.5149 50.9853 73.5002 48.5 73.5002C46.0147 73.5002 44 75.5149 44 78.0002V102C44 104.486 46.0147 106.5 48.5 106.5C50.9853 106.5 53 104.486 53 102V78.0002Z" fill="#A7C4FF"/>
</svg>
