<svg width="145" height="144" viewBox="0 0 145 144" fill="none" xmlns="http://www.w3.org/2000/svg">
<g clip-path="url(#clip0_508_1141)">
<rect x="34.5" y="38.0002" width="76" height="62" fill="#0A0F1C"/>
<path fill-rule="evenodd" clip-rule="evenodd" d="M51.1137 16.5397C57.2539 -4.97587 87.7457 -4.97587 93.8859 16.5397C95.8468 23.4107 102.906 27.4862 109.837 25.7489C131.54 20.3087 146.786 46.7154 131.223 62.7908C126.253 67.9244 126.253 76.0756 131.223 81.2092C146.786 97.2846 131.54 123.691 109.837 118.251C102.906 116.514 95.8468 120.589 93.8859 127.46C87.7457 148.976 57.2539 148.976 51.1137 127.46C49.1528 120.589 42.0937 116.514 35.1629 118.251C13.4597 123.691 -1.78615 97.2846 13.7767 81.2092C18.7467 76.0756 18.7467 67.9244 13.7767 62.7908C-1.78615 46.7154 13.4597 20.3087 35.1629 25.7489C42.0937 27.4862 49.1528 23.4107 51.1137 16.5397ZM99.957 56.8809C101.548 54.9716 101.29 52.1341 99.3808 50.543C97.4716 48.952 94.634 49.2099 93.043 51.1192L72.2617 76.0568C70.0369 78.7265 68.6707 80.3491 67.5452 81.3654C67.0232 81.8367 66.7136 82.0246 66.5652 82.0964C66.535 82.111 66.5136 82.1198 66.5 82.1248C66.4864 82.1198 66.465 82.111 66.4348 82.0964C66.2864 82.0246 65.9768 81.8367 65.4548 81.3654C64.3293 80.3491 62.9631 78.7265 60.7383 76.0568L51.957 65.5192C50.366 63.61 47.5284 63.352 45.6192 64.943C43.7099 66.5341 43.452 69.3716 45.043 71.2809L54.016 82.0485C55.9868 84.414 57.7635 86.5464 59.423 88.045C61.2287 89.6756 63.5031 91.1277 66.5 91.1277C69.4969 91.1277 71.7713 89.6756 73.577 88.045C75.2365 86.5465 77.0132 84.414 78.984 82.0485L99.957 56.8809Z" fill="#A7C4FF"/>
</g>
<defs>
<clipPath id="clip0_508_1141">
<rect width="144" height="144" fill="white" transform="translate(0.5 0.00012207)"/>
</clipPath>
</defs>
</svg>
